ffmpeg started on 2025-06-23 at 20:18:30
Report written to "D:\Convert\FFMetrics\reports\psnr_report-6.txt"
Log level: 32
Command line:
ffmpeg -hide_banner -nostdin -i "G:\\\xc0\xed\xe8\xec\xe5\\[\xd2\xee\xef-4]\\\xcc\xee\xe6\xe5\xf2, \xff \xe2\xf1\xf2\xf0\xe5\xf7\xf3 \xf2\xe5\xe1\xff \xe2 \xef\xee\xe4\xe7\xe5\xec\xe5\xeb\xfc\xe5\\\xd2\xc2-1\\DanMachi_[09]_[AniLibria_TV]_[HDTVRip_720p]_HEVC.mkv" -i "G:\\\xc0\xed\xe8\xec\xe5\\[\xd2\xee\xef-4]\\\xcc\xee\xe6\xe5\xf2, \xff \xe2\xf1\xf2\xf0\xe5\xf7\xf3 \xf2\xe5\xe1\xff \xe2 \xef\xee\xe4\xe7\xe5\xec\xe5\xeb\xfc\xe5\\\xd2\xc2-1\\DanMachi_[09]_[AniLibria_TV]_[HDTVRip_720p].mkv" -lavfi "[0:v]settb=AVTB,setpts=PTS-STARTPTS,format=pix_fmts=yuv420p10,fps=24000/1001,scale=1280:720:flags=bicubic[main];[1:v]settb=AVTB,setpts=PTS-STARTPTS,format=pix_fmts=yuv420p,fps=24000/1001,scale=1280:720:flags=bicubic[ref];[main][ref]psnr=eof_action=endall:stats_file='D\\:/Convert/FFMetrics/logs/psnr_logfile-6.txt'" -f null -
Input #0, matroska,webm, from 'G:\Аниме\[Топ-4]\Может, я встречу тебя в подземелье\ТВ-1\DanMachi_[09]_[AniLibria_TV]_[HDTVRip_720p]_HEVC.mkv':
  Metadata:
    ENCODER         : Lavf61.7.100
  Duration: 00:23:41.10, start: -0.021000, bitrate: 765 kb/s
  Stream #0:0(rus): Video: hevc (Main 10), yuv420p10le(tv, bt709, progressive), 1280x720 [SAR 1:1 DAR 16:9], 23.98 fps, 23.98 tbr, 1k tbn (default)
      Metadata:
        title           : [HorribleSubs]
        ENCODER         : Lavc61.19.100 libx265
        BPS             : 565428
        DURATION        : 00:23:41.087708375
        NUMBER_OF_FRAMES: 34072
        NUMBER_OF_BYTES : 100440435
        _STATISTICS_WRITING_APP: mkvpropedit v66.0.0 ('Josie') 64-bit
        _STATISTICS_WRITING_DATE_UTC: 2025-06-23 08:48:33
        _STATISTICS_TAGS: BPS DURATION NUMBER_OF_FRAMES NUMBER_OF_BYTES
  Stream #0:1(rus): Audio: aac (LC), 48000 Hz, stereo, fltp (default)
      Metadata:
        title           : Metacarmex & Say
        ENCODER         : Lavc61.19.100 aac
        BPS             : 195313
        DURATION        : 00:23:41.076000000
        NUMBER_OF_FRAMES: 66614
        NUMBER_OF_BYTES : 34694412
        _STATISTICS_WRITING_APP: mkvpropedit v66.0.0 ('Josie') 64-bit
        _STATISTICS_WRITING_DATE_UTC: 2025-06-23 08:48:33
        _STATISTICS_TAGS: BPS DURATION NUMBER_OF_FRAMES NUMBER_OF_BYTES
  Stream #0:2(rus): Subtitle: ass (ssa) (default)
      Metadata:
        title           : Надписи [Vaisiliok]
        BPS             : 2
        DURATION        : 00:23:04.340000000
        NUMBER_OF_FRAMES: 4
        NUMBER_OF_BYTES : 395
        _STATISTICS_WRITING_APP: mkvpropedit v66.0.0 ('Josie') 64-bit
        _STATISTICS_WRITING_DATE_UTC: 2025-06-23 08:48:33
        _STATISTICS_TAGS: BPS DURATION NUMBER_OF_FRAMES NUMBER_OF_BYTES
  Stream #0:3(rus): Subtitle: ass (ssa)
      Metadata:
        title           : Полные [Vaisiliok]
        BPS             : 153
        DURATION        : 00:23:38.270000000
        NUMBER_OF_FRAMES: 403
        NUMBER_OF_BYTES : 27198
        _STATISTICS_WRITING_APP: mkvpropedit v66.0.0 ('Josie') 64-bit
        _STATISTICS_WRITING_DATE_UTC: 2025-06-23 08:48:33
        _STATISTICS_TAGS: BPS DURATION NUMBER_OF_FRAMES NUMBER_OF_BYTES
Input #1, matroska,webm, from 'G:\Аниме\[Топ-4]\Может, я встречу тебя в подземелье\ТВ-1\DanMachi_[09]_[AniLibria_TV]_[HDTVRip_720p].mkv':
  Metadata:
    encoder         : libebml v1.4.2 + libmatroska v1.6.4
    creation_time   : 2025-01-14T16:49:50.000000Z
  Duration: 00:23:41.09, start: 0.000000, bitrate: 1972 kb/s
  Stream #1:0(rus): Video: h264 (High), yuv420p(progressive), 1280x720, SAR 1:1 DAR 16:9, 23.98 fps, 23.98 tbr, 1k tbn (default)
      Metadata:
        title           : [HorribleSubs]
        BPS             : 1774723
        DURATION        : 00:23:41.088000000
        NUMBER_OF_FRAMES: 34072
        NUMBER_OF_BYTES : 315254760
        _STATISTICS_WRITING_APP: mkvmerge v66.0.0 ('Josie') 64-bit
        _STATISTICS_WRITING_DATE_UTC: 2025-01-14 16:49:50
        _STATISTICS_TAGS: BPS DURATION NUMBER_OF_FRAMES NUMBER_OF_BYTES
  Stream #1:1(rus): Audio: aac (LC), 48000 Hz, stereo, fltp (default)
      Metadata:
        title           : Metacarmex & Say
        BPS             : 192000
        DURATION        : 00:23:41.077000000
        NUMBER_OF_FRAMES: 66613
        NUMBER_OF_BYTES : 34105856
        _STATISTICS_WRITING_APP: mkvmerge v66.0.0 ('Josie') 64-bit
        _STATISTICS_WRITING_DATE_UTC: 2025-01-14 16:49:50
        _STATISTICS_TAGS: BPS DURATION NUMBER_OF_FRAMES NUMBER_OF_BYTES
  Stream #1:2(rus): Subtitle: ass (ssa) (default)
      Metadata:
        title           : Надписи [Vaisiliok]
        BPS             : 2
        DURATION        : 00:23:04.340000000
        NUMBER_OF_FRAMES: 4
        NUMBER_OF_BYTES : 395
        _STATISTICS_WRITING_APP: mkvmerge v66.0.0 ('Josie') 64-bit
        _STATISTICS_WRITING_DATE_UTC: 2025-01-14 16:49:50
        _STATISTICS_TAGS: BPS DURATION NUMBER_OF_FRAMES NUMBER_OF_BYTES
  Stream #1:3(rus): Subtitle: ass (ssa)
      Metadata:
        title           : Полные [Vaisiliok]
        BPS             : 153
        DURATION        : 00:23:38.270000000
        NUMBER_OF_FRAMES: 403
        NUMBER_OF_BYTES : 27198
        _STATISTICS_WRITING_APP: mkvmerge v66.0.0 ('Josie') 64-bit
        _STATISTICS_WRITING_DATE_UTC: 2025-01-14 16:49:50
        _STATISTICS_TAGS: BPS DURATION NUMBER_OF_FRAMES NUMBER_OF_BYTES
  Stream #1:4: Attachment: ttf
      Metadata:
        filename        : ChinaCyr.ttf
        mimetype        : application/x-truetype-font
  Stream #1:5: Attachment: ttf
      Metadata:
        filename        : TkhO4vNj.ttf
        mimetype        : application/x-truetype-font
  Stream #1:6: Attachment: ttf
      Metadata:
        filename        : bonzai.ttf
        mimetype        : application/x-truetype-font
  Stream #1:7: Attachment: ttf
      Metadata:
        filename        : OpenSans-Semibold.ttf
        mimetype        : application/x-truetype-font
Stream mapping:
  Stream #0:0 (hevc) -> settb:default
  Stream #1:0 (h264) -> settb:default
  psnr:default -> Stream #0:0 (wrapped_avframe)
  Stream #0:1 -> #0:1 (aac (native) -> pcm_s16le (native))
[swscaler @ 000001d836737080] No accelerated colorspace conversion found from yuv420p to bgr48le.
[swscaler @ 000001d833a76e40] No accelerated colorspace conversion found from yuv420p to bgr48le.
[swscaler @ 000001d833aa3bc0] No accelerated colorspace conversion found from yuv420p to bgr48le.
[swscaler @ 000001d836a48580] No accelerated colorspace conversion found from yuv420p to bgr48le.
[swscaler @ 000001d83449ac40] No accelerated colorspace conversion found from yuv420p to bgr48le.
[swscaler @ 000001d836c7c800] No accelerated colorspace conversion found from yuv420p to bgr48le.
[swscaler @ 000001d836dba7c0] No accelerated colorspace conversion found from yuv420p to bgr48le.
[swscaler @ 000001d836f35040] No accelerated colorspace conversion found from yuv420p to bgr48le.
[swscaler @ 000001d8370477c0] No accelerated colorspace conversion found from yuv420p to bgr48le.
[swscaler @ 000001d837133040] No accelerated colorspace conversion found from yuv420p to bgr48le.
[swscaler @ 000001d8371af040] No accelerated colorspace conversion found from yuv420p to bgr48le.
[swscaler @ 000001d83acd2040] No accelerated colorspace conversion found from yuv420p to bgr48le.
[swscaler @ 000001d8371dfd80] No accelerated colorspace conversion found from yuv420p to bgr48le.
[swscaler @ 000001d83ad90040] No accelerated colorspace conversion found from yuv420p to bgr48le.
[swscaler @ 000001d83ae26040] No accelerated colorspace conversion found from yuv420p to bgr48le.
[swscaler @ 000001d83ae9b040] No accelerated colorspace conversion found from yuv420p to bgr48le.
Output #0, null, to 'pipe:':
  Metadata:
    encoder         : Lavf61.7.100
  Stream #0:0: Video: wrapped_avframe, yuv420p10le(tv, bt709, progressive), 1280x720 [SAR 1:1 DAR 16:9], q=2-31, 200 kb/s, 23.98 fps, 23.98 tbn
      Metadata:
        encoder         : Lavc61.19.100 wrapped_avframe
  Stream #0:1(rus): Audio: pcm_s16le, 48000 Hz, stereo, s16, 1536 kb/s (default)
      Metadata:
        title           : Metacarmex & Say
        _STATISTICS_TAGS: BPS DURATION NUMBER_OF_FRAMES NUMBER_OF_BYTES
        BPS             : 195313
        DURATION        : 00:23:41.076000000
        NUMBER_OF_FRAMES: 66614
        NUMBER_OF_BYTES : 34694412
        _STATISTICS_WRITING_APP: mkvpropedit v66.0.0 ('Josie') 64-bit
        _STATISTICS_WRITING_DATE_UTC: 2025-06-23 08:48:33
        encoder         : Lavc61.19.100 pcm_s16le
frame=   91 fps=0.0 q=-0.0 size=N/A time=00:00:03.79 bitrate=N/A speed=7.33x    frame=  193 fps=185 q=-0.0 size=N/A time=00:00:08.04 bitrate=N/A speed=7.71x    frame=  285 fps=183 q=-0.0 size=N/A time=00:00:11.88 bitrate=N/A speed=7.65x    frame=  400 fps=192 q=-0.0 size=N/A time=00:00:16.68 bitrate=N/A speed=8.03x    frame=  504 fps=195 q=-0.0 size=N/A time=00:00:21.02 bitrate=N/A speed=8.12x    frame=  606 fps=196 q=-0.0 size=N/A time=00:00:25.27 bitrate=N/A speed=8.15x    frame=  707 fps=195 q=-0.0 size=N/A time=00:00:29.48 bitrate=N/A speed=8.13x    frame=  811 fps=196 q=-0.0 size=N/A time=00:00:33.82 bitrate=N/A speed=8.18x    frame=  912 fps=196 q=-0.0 size=N/A time=00:00:38.03 bitrate=N/A speed=8.19x    frame= 1013 fps=196 q=-0.0 size=N/A time=00:00:42.25 bitrate=N/A speed=8.17x    frame= 1112 fps=196 q=-0.0 size=N/A time=00:00:46.37 bitrate=N/A speed=8.16x    frame= 1220 fps=197 q=-0.0 size=N/A time=00:00:50.88 bitrate=N/A speed=8.22x    frame= 1321 fps=197 q=-0.0 size=N/A time=00:00:55.09 bitrate=N/A speed= 8.2x    frame= 1421 fps=197 q=-0.0 size=N/A time=00:00:59.26 bitrate=N/A speed= 8.2x    frame= 1525 fps=197 q=-0.0 size=N/A time=00:01:03.60 bitrate=N/A speed=8.21x    frame= 1621 fps=196 q=-0.0 size=N/A time=00:01:07.60 bitrate=N/A speed=8.18x    frame= 1722 fps=196 q=-0.0 size=N/A time=00:01:11.82 bitrate=N/A speed=8.19x    frame= 1811 fps=195 q=-0.0 size=N/A time=00:01:15.53 bitrate=N/A speed=8.12x    frame= 1922 fps=196 q=-0.0 size=N/A time=00:01:20.16 bitrate=N/A speed=8.17x    frame= 2015 fps=195 q=-0.0 size=N/A time=00:01:24.04 bitrate=N/A speed=8.15x    frame= 2114 fps=195 q=-0.0 size=N/A time=00:01:28.17 bitrate=N/A speed=8.13x    frame= 2222 fps=196 q=-0.0 size=N/A time=00:01:32.67 bitrate=N/A speed=8.17x    frame= 2327 fps=196 q=-0.0 size=N/A time=00:01:37.05 bitrate=N/A speed=8.17x    frame= 2427 fps=196 q=-0.0 size=N/A time=00:01:41.22 bitrate=N/A speed=8.17x    frame= 2520 fps=195 q=-0.0 size=N/A time=00:01:45.10 bitrate=N/A speed=8.15x    frame= 2630 fps=196 q=-0.0 size=N/A time=00:01:49.69 bitrate=N/A speed=8.17x    frame= 2730 fps=196 q=-0.0 size=N/A time=00:01:53.86 bitrate=N/A speed=8.17x    frame= 2829 fps=196 q=-0.0 size=N/A time=00:01:57.99 bitrate=N/A speed=8.17x    frame= 2932 fps=196 q=-0.0 size=N/A time=00:02:02.28 bitrate=N/A speed=8.17x    frame= 3034 fps=196 q=-0.0 size=N/A time=00:02:06.54 bitrate=N/A speed=8.18x    frame= 3132 fps=196 q=-0.0 size=N/A time=00:02:10.63 bitrate=N/A speed=8.17x    frame= 3239 fps=196 q=-0.0 size=N/A time=00:02:15.09 bitrate=N/A speed=8.18x    frame= 3332 fps=196 q=-0.0 size=N/A time=00:02:18.97 bitrate=N/A speed=8.16x    frame= 3444 fps=196 q=-0.0 size=N/A time=00:02:23.64 bitrate=N/A speed=8.19x    frame= 3552 fps=197 q=-0.0 size=N/A time=00:02:28.14 bitrate=N/A speed= 8.2x    frame= 3653 fps=197 q=-0.0 size=N/A time=00:02:32.36 bitrate=N/A speed= 8.2x    frame= 3760 fps=197 q=-0.0 size=N/A time=00:02:36.82 bitrate=N/A speed=8.21x    frame= 3854 fps=197 q=-0.0 size=N/A time=00:02:40.74 bitrate=N/A speed= 8.2x    frame= 3963 fps=197 q=-0.0 size=N/A time=00:02:45.29 bitrate=N/A speed=8.22x    frame= 4068 fps=197 q=-0.0 size=N/A time=00:02:49.66 bitrate=N/A speed=8.22x    frame= 4169 fps=197 q=-0.0 size=N/A time=00:02:53.88 bitrate=N/A speed=8.22x    frame= 4273 fps=197 q=-0.0 size=N/A time=00:02:58.21 bitrate=N/A speed=8.23x    frame= 4378 fps=197 q=-0.0 size=N/A time=00:03:02.59 bitrate=N/A speed=8.23x    frame= 4480 fps=197 q=-0.0 size=N/A time=00:03:06.85 bitrate=N/A speed=8.23x    frame= 4574 fps=197 q=-0.0 size=N/A time=00:03:10.77 bitrate=N/A speed=8.22x    frame= 4680 fps=197 q=-0.0 size=N/A time=00:03:15.19 bitrate=N/A speed=8.23x    frame= 4786 fps=197 q=-0.0 size=N/A time=00:03:19.61 bitrate=N/A speed=8.23x    frame= 4886 fps=197 q=-0.0 size=N/A time=00:03:23.78 bitrate=N/A speed=8.23x    frame= 4986 fps=197 q=-0.0 size=N/A time=00:03:27.95 bitrate=N/A speed=8.23x    frame= 5084 fps=197 q=-0.0 size=N/A time=00:03:32.04 bitrate=N/A speed=8.22x    frame= 5191 fps=197 q=-0.0 size=N/A time=00:03:36.50 bitrate=N/A speed=8.23x    frame= 5297 fps=198 q=-0.0 size=N/A time=00:03:40.92 bitrate=N/A speed=8.24x    frame= 5405 fps=198 q=-0.0 size=N/A time=00:03:45.43 bitrate=N/A speed=8.24x    frame= 5500 fps=197 q=-0.0 size=N/A time=00:03:49.39 bitrate=N/A speed=8.24x    frame= 5600 fps=197 q=-0.0 size=N/A time=00:03:53.56 bitrate=N/A speed=8.23x    frame= 5708 fps=198 q=-0.0 size=N/A time=00:03:58.07 bitrate=N/A speed=8.24x    frame= 5808 fps=198 q=-0.0 size=N/A time=00:04:02.24 bitrate=N/A speed=8.24x    frame= 5913 fps=198 q=-0.0 size=N/A time=00:04:06.62 bitrate=N/A speed=8.24x    frame= 6019 fps=198 q=-0.0 size=N/A time=00:04:11.04 bitrate=N/A speed=8.25x    frame= 6126 fps=198 q=-0.0 size=N/A time=00:04:15.50 bitrate=N/A speed=8.25x    frame= 6230 fps=198 q=-0.0 size=N/A time=00:04:19.84 bitrate=N/A speed=8.25x    frame= 6325 fps=198 q=-0.0 size=N/A time=00:04:23.80 bitrate=N/A speed=8.24x    frame= 6431 fps=198 q=-0.0 size=N/A time=00:04:28.22 bitrate=N/A speed=8.25x    frame= 6539 fps=198 q=-0.0 size=N/A time=00:04:32.73 bitrate=N/A speed=8.25x    frame= 6633 fps=198 q=-0.0 size=N/A time=00:04:36.65 bitrate=N/A speed=8.25x    frame= 6737 fps=198 q=-0.0 size=N/A time=00:04:40.98 bitrate=N/A speed=8.25x    frame= 6843 fps=198 q=-0.0 size=N/A time=00:04:45.41 bitrate=N/A speed=8.25x    frame= 6944 fps=198 q=-0.0 size=N/A time=00:04:49.62 bitrate=N/A speed=8.25x    frame= 7051 fps=198 q=-0.0 size=N/A time=00:04:54.08 bitrate=N/A speed=8.25x    frame= 7152 fps=198 q=-0.0 size=N/A time=00:04:58.29 bitrate=N/A speed=8.25x    frame= 7250 fps=198 q=-0.0 size=N/A time=00:05:02.38 bitrate=N/A speed=8.25x    frame= 7358 fps=198 q=-0.0 size=N/A time=00:05:06.88 bitrate=N/A speed=8.26x    frame= 7463 fps=198 q=-0.0 size=N/A time=00:05:11.26 bitrate=N/A speed=8.26x    frame= 7565 fps=198 q=-0.0 size=N/A time=00:05:15.52 bitrate=N/A speed=8.26x    frame= 7671 fps=198 q=-0.0 size=N/A time=00:05:19.94 bitrate=N/A speed=8.26x    frame= 7767 fps=198 q=-0.0 size=N/A time=00:05:23.94 bitrate=N/A speed=8.26x    frame= 7878 fps=198 q=-0.0 size=N/A time=00:05:28.57 bitrate=N/A speed=8.27x    frame= 7984 fps=198 q=-0.0 size=N/A time=00:05:32.99 bitrate=N/A speed=8.27x    frame= 8087 fps=198 q=-0.0 size=N/A time=00:05:37.29 bitrate=N/A speed=8.27x    frame= 8191 fps=198 q=-0.0 size=N/A time=00:05:41.63 bitrate=N/A speed=8.28x    frame= 8299 fps=198 q=-0.0 size=N/A time=00:05:46.13 bitrate=N/A speed=8.28x    frame= 8391 fps=198 q=-0.0 size=N/A time=00:05:49.97 bitrate=N/A speed=8.27x    frame= 8501 fps=198 q=-0.0 size=N/A time=00:05:54.56 bitrate=N/A speed=8.28x    frame= 8607 fps=199 q=-0.0 size=N/A time=00:05:58.98 bitrate=N/A speed=8.28x    frame= 8711 fps=199 q=-0.0 size=N/A time=00:06:03.32 bitrate=N/A speed=8.28x    frame= 8815 fps=199 q=-0.0 size=N/A time=00:06:07.65 bitrate=N/A speed=8.28x    frame= 8905 fps=198 q=-0.0 size=N/A time=00:06:11.41 bitrate=N/A speed=8.27x    frame= 9018 fps=199 q=-0.0 size=N/A time=00:06:16.12 bitrate=N/A speed=8.28x    frame= 9126 fps=199 q=-0.0 size=N/A time=00:06:20.63 bitrate=N/A speed=8.29x    frame= 9222 fps=199 q=-0.0 size=N/A time=00:06:24.63 bitrate=N/A speed=8.28x    frame= 9326 fps=199 q=-0.0 size=N/A time=00:06:28.97 bitrate=N/A speed=8.28x    frame= 9426 fps=199 q=-0.0 size=N/A time=00:06:33.14 bitrate=N/A speed=8.28x    frame= 9535 fps=199 q=-0.0 size=N/A time=00:06:37.68 bitrate=N/A speed=8.29x    frame= 9640 fps=199 q=-0.0 size=N/A time=00:06:42.06 bitrate=N/A speed=8.29x    frame= 9742 fps=199 q=-0.0 size=N/A time=00:06:46.32 bitrate=N/A speed=8.29x    frame= 9841 fps=199 q=-0.0 size=N/A time=00:06:50.45 bitrate=N/A speed=8.28x    frame= 9952 fps=199 q=-0.0 size=N/A time=00:06:55.08 bitrate=N/A speed=8.29x    frame=10056 fps=199 q=-0.0 size=N/A time=00:06:59.41 bitrate=N/A speed=8.29x    frame=10163 fps=199 q=-0.0 size=N/A time=00:07:03.88 bitrate=N/A speed= 8.3x    frame=10268 fps=199 q=-0.0 size=N/A time=00:07:08.26 bitrate=N/A speed= 8.3x    frame=10370 fps=199 q=-0.0 size=N/A time=00:07:12.51 bitrate=N/A speed= 8.3x    frame=10471 fps=199 q=-0.0 size=N/A time=00:07:16.72 bitrate=N/A speed= 8.3x    frame=10581 fps=199 q=-0.0 size=N/A time=00:07:21.31 bitrate=N/A speed= 8.3x    frame=10677 fps=199 q=-0.0 size=N/A time=00:07:25.31 bitrate=N/A speed= 8.3x    frame=10785 fps=199 q=-0.0 size=N/A time=00:07:29.82 bitrate=N/A speed= 8.3x    frame=10884 fps=199 q=-0.0 size=N/A time=00:07:33.95 bitrate=N/A speed= 8.3x    frame=10983 fps=199 q=-0.0 size=N/A time=00:07:38.08 bitrate=N/A speed= 8.3x    frame=11089 fps=199 q=-0.0 size=N/A time=00:07:42.50 bitrate=N/A speed= 8.3x    frame=11194 fps=199 q=-0.0 size=N/A time=00:07:46.88 bitrate=N/A speed= 8.3x    frame=11299 fps=199 q=-0.0 size=N/A time=00:07:51.26 bitrate=N/A speed= 8.3x    frame=11400 fps=199 q=-0.0 size=N/A time=00:07:55.47 bitrate=N/A speed= 8.3x    frame=11504 fps=199 q=-0.0 size=N/A time=00:07:59.81 bitrate=N/A speed= 8.3x    frame=11604 fps=199 q=-0.0 size=N/A time=00:08:03.98 bitrate=N/A speed= 8.3x    frame=11706 fps=199 q=-0.0 size=N/A time=00:08:08.23 bitrate=N/A speed= 8.3x    frame=11805 fps=199 q=-0.0 size=N/A time=00:08:12.36 bitrate=N/A speed= 8.3x    frame=11914 fps=199 q=-0.0 size=N/A time=00:08:16.91 bitrate=N/A speed= 8.3x    frame=12015 fps=199 q=-0.0 size=N/A time=00:08:21.12 bitrate=N/A speed= 8.3x    frame=12120 fps=199 q=-0.0 size=N/A time=00:08:25.50 bitrate=N/A speed= 8.3x    frame=12223 fps=199 q=-0.0 size=N/A time=00:08:29.80 bitrate=N/A speed= 8.3x    frame=12332 fps=199 q=-0.0 size=N/A time=00:08:34.34 bitrate=N/A speed=8.31x    frame=12439 fps=199 q=-0.0 size=N/A time=00:08:38.80 bitrate=N/A speed=8.31x    frame=12541 fps=199 q=-0.0 size=N/A time=00:08:43.06 bitrate=N/A speed=8.31x    frame=12643 fps=199 q=-0.0 size=N/A time=00:08:47.31 bitrate=N/A speed=8.31x    frame=12740 fps=199 q=-0.0 size=N/A time=00:08:51.36 bitrate=N/A speed= 8.3x    frame=12847 fps=199 q=-0.0 size=N/A time=00:08:55.82 bitrate=N/A speed=8.31x    frame=12945 fps=199 q=-0.0 size=N/A time=00:08:59.91 bitrate=N/A speed= 8.3x    frame=13046 fps=199 q=-0.0 size=N/A time=00:09:04.12 bitrate=N/A speed= 8.3x    frame=13161 fps=199 q=-0.0 size=N/A time=00:09:08.92 bitrate=N/A speed=8.31x    frame=13260 fps=199 q=-0.0 size=N/A time=00:09:13.05 bitrate=N/A speed=8.31x    frame=13372 fps=199 q=-0.0 size=N/A time=00:09:17.72 bitrate=N/A speed=8.31x    frame=13478 fps=199 q=-0.0 size=N/A time=00:09:22.14 bitrate=N/A speed=8.31x    frame=13581 fps=199 q=-0.0 size=N/A time=00:09:26.44 bitrate=N/A speed=8.31x    frame=13681 fps=199 q=-0.0 size=N/A time=00:09:30.61 bitrate=N/A speed=8.31x    frame=13786 fps=199 q=-0.0 size=N/A time=00:09:34.99 bitrate=N/A speed=8.31x    frame=13888 fps=199 q=-0.0 size=N/A time=00:09:39.24 bitrate=N/A speed=8.31x    frame=13990 fps=199 q=-0.0 size=N/A time=00:09:43.49 bitrate=N/A speed=8.31x    frame=14095 fps=199 q=-0.0 size=N/A time=00:09:47.87 bitrate=N/A speed=8.31x    frame=14192 fps=199 q=-0.0 size=N/A time=00:09:51.92 bitrate=N/A speed=8.31x    frame=14301 fps=199 q=-0.0 size=N/A time=00:09:56.47 bitrate=N/A speed=8.31x    frame=14402 fps=199 q=-0.0 size=N/A time=00:10:00.68 bitrate=N/A speed=8.31x    frame=14500 fps=199 q=-0.0 size=N/A time=00:10:04.77 bitrate=N/A speed=8.31x    frame=14610 fps=199 q=-0.0 size=N/A time=00:10:09.35 bitrate=N/A speed=8.31x    frame=14708 fps=199 q=-0.0 size=N/A time=00:10:13.44 bitrate=N/A speed=8.31x    frame=14820 fps=199 q=-0.0 size=N/A time=00:10:18.11 bitrate=N/A speed=8.32x    frame=14915 fps=199 q=-0.0 size=N/A time=00:10:22.07 bitrate=N/A speed=8.31x    frame=15027 fps=199 q=-0.0 size=N/A time=00:10:26.75 bitrate=N/A speed=8.32x    frame=15127 fps=199 q=-0.0 size=N/A time=00:10:30.92 bitrate=N/A speed=8.32x    frame=15234 fps=199 q=-0.0 size=N/A time=00:10:35.38 bitrate=N/A speed=8.32x    frame=15332 fps=199 q=-0.0 size=N/A time=00:10:39.47 bitrate=N/A speed=8.32x    frame=15432 fps=199 q=-0.0 size=N/A time=00:10:43.64 bitrate=N/A speed=8.31x    frame=15527 fps=199 q=-0.0 size=N/A time=00:10:47.60 bitrate=N/A speed=8.31x    frame=15636 fps=199 q=-0.0 size=N/A time=00:10:52.15 bitrate=N/A speed=8.31x    frame=15741 fps=199 q=-0.0 size=N/A time=00:10:56.53 bitrate=N/A speed=8.31x    frame=15844 fps=199 q=-0.0 size=N/A time=00:11:00.82 bitrate=N/A speed=8.32x    frame=15948 fps=199 q=-0.0 size=N/A time=00:11:05.16 bitrate=N/A speed=8.31x    frame=16049 fps=199 q=-0.0 size=N/A time=00:11:09.37 bitrate=N/A speed=8.31x    frame=16153 fps=199 q=-0.0 size=N/A time=00:11:13.71 bitrate=N/A speed=8.31x    frame=16243 fps=199 q=-0.0 size=N/A time=00:11:17.46 bitrate=N/A speed=8.31x    frame=16348 fps=199 q=-0.0 size=N/A time=00:11:21.84 bitrate=N/A speed=8.31x    frame=16455 fps=199 q=-0.0 size=N/A time=00:11:26.31 bitrate=N/A speed=8.31x    frame=16556 fps=199 q=-0.0 size=N/A time=00:11:30.52 bitrate=N/A speed=8.31x    frame=16671 fps=199 q=-0.0 size=N/A time=00:11:35.31 bitrate=N/A speed=8.32x    frame=16771 fps=199 q=-0.0 size=N/A time=00:11:39.49 bitrate=N/A speed=8.32x    frame=16873 fps=199 q=-0.0 size=N/A time=00:11:43.74 bitrate=N/A speed=8.32x    frame=16975 fps=199 q=-0.0 size=N/A time=00:11:47.99 bitrate=N/A speed=8.31x    frame=17076 fps=199 q=-0.0 size=N/A time=00:11:52.21 bitrate=N/A speed=8.31x    frame=17175 fps=199 q=-0.0 size=N/A time=00:11:56.34 bitrate=N/A speed=8.31x    frame=17275 fps=199 q=-0.0 size=N/A time=00:12:00.51 bitrate=N/A speed=8.31x    frame=17374 fps=199 q=-0.0 size=N/A time=00:12:04.64 bitrate=N/A speed=8.31x    frame=17479 fps=199 q=-0.0 size=N/A time=00:12:09.01 bitrate=N/A speed=8.31x    frame=17577 fps=199 q=-0.0 size=N/A time=00:12:13.10 bitrate=N/A speed=8.31x    frame=17679 fps=199 q=-0.0 size=N/A time=00:12:17.36 bitrate=N/A speed=8.31x    frame=17784 fps=199 q=-0.0 size=N/A time=00:12:21.74 bitrate=N/A speed=8.31x    frame=17893 fps=199 q=-0.0 size=N/A time=00:12:26.28 bitrate=N/A speed=8.31x    frame=17993 fps=199 q=-0.0 size=N/A time=00:12:30.45 bitrate=N/A speed=8.31x    frame=18084 fps=199 q=-0.0 size=N/A time=00:12:34.25 bitrate=N/A speed= 8.3x    frame=18194 fps=199 q=-0.0 size=N/A time=00:12:38.84 bitrate=N/A speed=8.31x    frame=18299 fps=199 q=-0.0 size=N/A time=00:12:43.22 bitrate=N/A speed=8.31x    frame=18399 fps=199 q=-0.0 size=N/A time=00:12:47.39 bitrate=N/A speed=8.31x    frame=18502 fps=199 q=-0.0 size=N/A time=00:12:51.68 bitrate=N/A speed=8.31x    frame=18603 fps=199 q=-0.0 size=N/A time=00:12:55.90 bitrate=N/A speed=8.31x    frame=18705 fps=199 q=-0.0 size=N/A time=00:13:00.15 bitrate=N/A speed=8.31x    frame=18801 fps=199 q=-0.0 size=N/A time=00:13:04.15 bitrate=N/A speed= 8.3x    frame=18906 fps=199 q=-0.0 size=N/A time=00:13:08.53 bitrate=N/A speed= 8.3x    frame=19010 fps=199 q=-0.0 size=N/A time=00:13:12.87 bitrate=N/A speed=8.31x    frame=19113 fps=199 q=-0.0 size=N/A time=00:13:17.17 bitrate=N/A speed=8.31x    frame=19214 fps=199 q=-0.0 size=N/A time=00:13:21.38 bitrate=N/A speed=8.31x    frame=19316 fps=199 q=-0.0 size=N/A time=00:13:25.63 bitrate=N/A speed= 8.3x    frame=19409 fps=199 q=-0.0 size=N/A time=00:13:29.51 bitrate=N/A speed= 8.3x    frame=19515 fps=199 q=-0.0 size=N/A time=00:13:33.93 bitrate=N/A speed= 8.3x    frame=19625 fps=199 q=-0.0 size=N/A time=00:13:38.52 bitrate=N/A speed= 8.3x    frame=19719 fps=199 q=-0.0 size=N/A time=00:13:42.44 bitrate=N/A speed= 8.3x    frame=19827 fps=199 q=-0.0 size=N/A time=00:13:46.95 bitrate=N/A speed= 8.3x    frame=19933 fps=199 q=-0.0 size=N/A time=00:13:51.37 bitrate=N/A speed= 8.3x    frame=20026 fps=199 q=-0.0 size=N/A time=00:13:55.25 bitrate=N/A speed= 8.3x    frame=20134 fps=199 q=-0.0 size=N/A time=00:13:59.75 bitrate=N/A speed= 8.3x    frame=20236 fps=199 q=-0.0 size=N/A time=00:14:04.00 bitrate=N/A speed= 8.3x    frame=20341 fps=199 q=-0.0 size=N/A time=00:14:08.38 bitrate=N/A speed= 8.3x    frame=20436 fps=199 q=-0.0 size=N/A time=00:14:12.35 bitrate=N/A speed= 8.3x    frame=20546 fps=199 q=-0.0 size=N/A time=00:14:16.93 bitrate=N/A speed= 8.3x    frame=20644 fps=199 q=-0.0 size=N/A time=00:14:21.02 bitrate=N/A speed= 8.3x    frame=20751 fps=199 q=-0.0 size=N/A time=00:14:25.48 bitrate=N/A speed= 8.3x    frame=20855 fps=199 q=-0.0 size=N/A time=00:14:29.82 bitrate=N/A speed= 8.3x    frame=20949 fps=199 q=-0.0 size=N/A time=00:14:33.74 bitrate=N/A speed= 8.3x    frame=21051 fps=199 q=-0.0 size=N/A time=00:14:38.00 bitrate=N/A speed= 8.3x    frame=21162 fps=199 q=-0.0 size=N/A time=00:14:42.63 bitrate=N/A speed= 8.3x    frame=21259 fps=199 q=-0.0 size=N/A time=00:14:46.67 bitrate=N/A speed= 8.3x    frame=21355 fps=199 q=-0.0 size=N/A time=00:14:50.68 bitrate=N/A speed= 8.3x    frame=21462 fps=199 q=-0.0 size=N/A time=00:14:55.18 bitrate=N/A speed= 8.3x    frame=21567 fps=199 q=-0.0 size=N/A time=00:14:59.52 bitrate=N/A speed= 8.3x    frame=21668 fps=199 q=-0.0 size=N/A time=00:15:03.73 bitrate=N/A speed= 8.3x    frame=21772 fps=199 q=-0.0 size=N/A time=00:15:08.07 bitrate=N/A speed= 8.3x    frame=21871 fps=199 q=-0.0 size=N/A time=00:15:12.20 bitrate=N/A speed= 8.3x    frame=21981 fps=199 q=-0.0 size=N/A time=00:15:16.79 bitrate=N/A speed= 8.3x    frame=22074 fps=199 q=-0.0 size=N/A time=00:15:20.66 bitrate=N/A speed= 8.3x    frame=22188 fps=199 q=-0.0 size=N/A time=00:15:25.42 bitrate=N/A speed= 8.3x    frame=22287 fps=199 q=-0.0 size=N/A time=00:15:29.55 bitrate=N/A speed= 8.3x    frame=22400 fps=199 q=-0.0 size=N/A time=00:15:34.26 bitrate=N/A speed=8.31x    frame=22497 fps=199 q=-0.0 size=N/A time=00:15:38.31 bitrate=N/A speed= 8.3x    frame=22603 fps=199 q=-0.0 size=N/A time=00:15:42.73 bitrate=N/A speed=8.31x    frame=22704 fps=199 q=-0.0 size=N/A time=00:15:46.94 bitrate=N/A speed= 8.3x    frame=22810 fps=199 q=-0.0 size=N/A time=00:15:51.36 bitrate=N/A speed=8.31x    frame=22908 fps=199 q=-0.0 size=N/A time=00:15:55.45 bitrate=N/A speed= 8.3x    frame=23009 fps=199 q=-0.0 size=N/A time=00:15:59.66 bitrate=N/A speed= 8.3x    frame=23128 fps=199 q=-0.0 size=N/A time=00:16:04.63 bitrate=N/A speed=8.31x    frame=23222 fps=199 q=-0.0 size=N/A time=00:16:08.55 bitrate=N/A speed=8.31x    frame=23338 fps=199 q=-0.0 size=N/A time=00:16:13.38 bitrate=N/A speed=8.31x    frame=23437 fps=199 q=-0.0 size=N/A time=00:16:17.51 bitrate=N/A speed=8.31x    frame=23548 fps=199 q=-0.0 size=N/A time=00:16:22.14 bitrate=N/A speed=8.31x    frame=23657 fps=199 q=-0.0 size=N/A time=00:16:26.69 bitrate=N/A speed=8.31x    frame=23757 fps=199 q=-0.0 size=N/A time=00:16:30.86 bitrate=N/A speed=8.31x    frame=23868 fps=199 q=-0.0 size=N/A time=00:16:35.49 bitrate=N/A speed=8.32x    frame=23970 fps=199 q=-0.0 size=N/A time=00:16:39.74 bitrate=N/A speed=8.32x    frame=24068 fps=199 q=-0.0 size=N/A time=00:16:43.83 bitrate=N/A speed=8.31x    frame=24176 fps=199 q=-0.0 size=N/A time=00:16:48.34 bitrate=N/A speed=8.32x    frame=24281 fps=199 q=-0.0 size=N/A time=00:16:52.72 bitrate=N/A speed=8.32x    frame=24387 fps=199 q=-0.0 size=N/A time=00:16:57.14 bitrate=N/A speed=8.32x    frame=24484 fps=199 q=-0.0 size=N/A time=00:17:01.18 bitrate=N/A speed=8.32x    frame=24592 fps=199 q=-0.0 size=N/A time=00:17:05.69 bitrate=N/A speed=8.32x    frame=24698 fps=199 q=-0.0 size=N/A time=00:17:10.11 bitrate=N/A speed=8.32x    frame=24806 fps=199 q=-0.0 size=N/A time=00:17:14.61 bitrate=N/A speed=8.32x    frame=24909 fps=200 q=-0.0 size=N/A time=00:17:18.91 bitrate=N/A speed=8.32x    frame=25015 fps=200 q=-0.0 size=N/A time=00:17:23.33 bitrate=N/A speed=8.32x    frame=25115 fps=200 q=-0.0 size=N/A time=00:17:27.50 bitrate=N/A speed=8.32x    frame=25225 fps=200 q=-0.0 size=N/A time=00:17:32.09 bitrate=N/A speed=8.32x    frame=25332 fps=200 q=-0.0 size=N/A time=00:17:36.55 bitrate=N/A speed=8.32x    frame=25435 fps=200 q=-0.0 size=N/A time=00:17:40.85 bitrate=N/A speed=8.32x    frame=25542 fps=200 q=-0.0 size=N/A time=00:17:45.31 bitrate=N/A speed=8.33x    frame=25648 fps=200 q=-0.0 size=N/A time=00:17:49.73 bitrate=N/A speed=8.33x    frame=25745 fps=200 q=-0.0 size=N/A time=00:17:53.78 bitrate=N/A speed=8.33x    frame=25856 fps=200 q=-0.0 size=N/A time=00:17:58.41 bitrate=N/A speed=8.33x    frame=25960 fps=200 q=-0.0 size=N/A time=00:18:02.74 bitrate=N/A speed=8.33x    frame=26066 fps=200 q=-0.0 size=N/A time=00:18:07.16 bitrate=N/A speed=8.33x    frame=26169 fps=200 q=-0.0 size=N/A time=00:18:11.46 bitrate=N/A speed=8.33x    frame=26270 fps=200 q=-0.0 size=N/A time=00:18:15.67 bitrate=N/A speed=8.33x    frame=26377 fps=200 q=-0.0 size=N/A time=00:18:20.14 bitrate=N/A speed=8.33x    frame=26479 fps=200 q=-0.0 size=N/A time=00:18:24.39 bitrate=N/A speed=8.33x    frame=26584 fps=200 q=-0.0 size=N/A time=00:18:28.77 bitrate=N/A speed=8.33x    frame=26688 fps=200 q=-0.0 size=N/A time=00:18:33.11 bitrate=N/A speed=8.33x    frame=26781 fps=200 q=-0.0 size=N/A time=00:18:36.99 bitrate=N/A speed=8.33x    frame=26882 fps=200 q=-0.0 size=N/A time=00:18:41.20 bitrate=N/A speed=8.33x    frame=26984 fps=200 q=-0.0 size=N/A time=00:18:45.45 bitrate=N/A speed=8.33x    frame=27096 fps=200 q=-0.0 size=N/A time=00:18:50.12 bitrate=N/A speed=8.33x    frame=27196 fps=200 q=-0.0 size=N/A time=00:18:54.29 bitrate=N/A speed=8.33x    frame=27298 fps=200 q=-0.0 size=N/A time=00:18:58.55 bitrate=N/A speed=8.33x    frame=27395 fps=200 q=-0.0 size=N/A time=00:19:02.59 bitrate=N/A speed=8.33x    frame=27494 fps=200 q=-0.0 size=N/A time=00:19:06.72 bitrate=N/A speed=8.33x    frame=27595 fps=200 q=-0.0 size=N/A time=00:19:10.94 bitrate=N/A speed=8.32x    frame=27694 fps=200 q=-0.0 size=N/A time=00:19:15.07 bitrate=N/A speed=8.32x    frame=27796 fps=200 q=-0.0 size=N/A time=00:19:19.32 bitrate=N/A speed=8.32x    frame=27893 fps=200 q=-0.0 size=N/A time=00:19:23.37 bitrate=N/A speed=8.32x    frame=28002 fps=200 q=-0.0 size=N/A time=00:19:27.91 bitrate=N/A speed=8.32x    frame=28096 fps=199 q=-0.0 size=N/A time=00:19:31.83 bitrate=N/A speed=8.32x    frame=28207 fps=200 q=-0.0 size=N/A time=00:19:36.46 bitrate=N/A speed=8.32x    frame=28304 fps=200 q=-0.0 size=N/A time=00:19:40.51 bitrate=N/A speed=8.32x    frame=28408 fps=200 q=-0.0 size=N/A time=00:19:44.85 bitrate=N/A speed=8.32x    frame=28509 fps=199 q=-0.0 size=N/A time=00:19:49.06 bitrate=N/A speed=8.32x    frame=28610 fps=199 q=-0.0 size=N/A time=00:19:53.27 bitrate=N/A speed=8.32x    frame=28702 fps=199 q=-0.0 size=N/A time=00:19:57.11 bitrate=N/A speed=8.32x    frame=28820 fps=200 q=-0.0 size=N/A time=00:20:02.03 bitrate=N/A speed=8.32x    frame=28924 fps=200 q=-0.0 size=N/A time=00:20:06.37 bitrate=N/A speed=8.32x    frame=29027 fps=200 q=-0.0 size=N/A time=00:20:10.66 bitrate=N/A speed=8.32x    frame=29130 fps=200 q=-0.0 size=N/A time=00:20:14.96 bitrate=N/A speed=8.32x    frame=29233 fps=200 q=-0.0 size=N/A time=00:20:19.25 bitrate=N/A speed=8.32x    frame=29332 fps=199 q=-0.0 size=N/A time=00:20:23.38 bitrate=N/A speed=8.32x    frame=29433 fps=199 q=-0.0 size=N/A time=00:20:27.60 bitrate=N/A speed=8.32x    frame=29528 fps=199 q=-0.0 size=N/A time=00:20:31.56 bitrate=N/A speed=8.32x    frame=29640 fps=199 q=-0.0 size=N/A time=00:20:36.23 bitrate=N/A speed=8.32x    frame=29741 fps=199 q=-0.0 size=N/A time=00:20:40.44 bitrate=N/A speed=8.32x    frame=29841 fps=199 q=-0.0 size=N/A time=00:20:44.61 bitrate=N/A speed=8.32x    frame=29950 fps=199 q=-0.0 size=N/A time=00:20:49.16 bitrate=N/A speed=8.32x    frame=30045 fps=199 q=-0.0 size=N/A time=00:20:53.12 bitrate=N/A speed=8.32x    frame=30152 fps=199 q=-0.0 size=N/A time=00:20:57.58 bitrate=N/A speed=8.32x    frame=30250 fps=199 q=-0.0 size=N/A time=00:21:01.67 bitrate=N/A speed=8.32x    frame=30348 fps=199 q=-0.0 size=N/A time=00:21:05.76 bitrate=N/A speed=8.32x    frame=30445 fps=199 q=-0.0 size=N/A time=00:21:09.81 bitrate=N/A speed=8.31x    frame=30537 fps=199 q=-0.0 size=N/A time=00:21:13.64 bitrate=N/A speed=8.31x    frame=30634 fps=199 q=-0.0 size=N/A time=00:21:17.69 bitrate=N/A speed=8.31x    frame=30730 fps=199 q=-0.0 size=N/A time=00:21:21.69 bitrate=N/A speed=8.31x    frame=30825 fps=199 q=-0.0 size=N/A time=00:21:25.65 bitrate=N/A speed=8.31x    frame=30922 fps=199 q=-0.0 size=N/A time=00:21:29.70 bitrate=N/A speed= 8.3x    frame=31023 fps=199 q=-0.0 size=N/A time=00:21:33.91 bitrate=N/A speed= 8.3x    frame=31124 fps=199 q=-0.0 size=N/A time=00:21:38.13 bitrate=N/A speed= 8.3x    frame=31229 fps=199 q=-0.0 size=N/A time=00:21:42.50 bitrate=N/A speed= 8.3x    frame=31320 fps=199 q=-0.0 size=N/A time=00:21:46.30 bitrate=N/A speed= 8.3x    frame=31430 fps=199 q=-0.0 size=N/A time=00:21:50.89 bitrate=N/A speed= 8.3x    frame=31527 fps=199 q=-0.0 size=N/A time=00:21:54.93 bitrate=N/A speed= 8.3x    frame=31628 fps=199 q=-0.0 size=N/A time=00:21:59.15 bitrate=N/A speed= 8.3x    frame=31728 fps=199 q=-0.0 size=N/A time=00:22:03.32 bitrate=N/A speed= 8.3x    frame=31828 fps=199 q=-0.0 size=N/A time=00:22:07.49 bitrate=N/A speed= 8.3x    frame=31925 fps=199 q=-0.0 size=N/A time=00:22:11.53 bitrate=N/A speed= 8.3x    frame=32028 fps=199 q=-0.0 size=N/A time=00:22:15.83 bitrate=N/A speed= 8.3x    frame=32127 fps=199 q=-0.0 size=N/A time=00:22:19.96 bitrate=N/A speed= 8.3x    frame=32234 fps=199 q=-0.0 size=N/A time=00:22:24.42 bitrate=N/A speed= 8.3x    frame=32334 fps=199 q=-0.0 size=N/A time=00:22:28.59 bitrate=N/A speed= 8.3x    frame=32436 fps=199 q=-0.0 size=N/A time=00:22:32.85 bitrate=N/A speed= 8.3x    frame=32536 fps=199 q=-0.0 size=N/A time=00:22:37.02 bitrate=N/A speed= 8.3x    frame=32642 fps=199 q=-0.0 size=N/A time=00:22:41.44 bitrate=N/A speed= 8.3x    frame=32747 fps=199 q=-0.0 size=N/A time=00:22:45.82 bitrate=N/A speed= 8.3x    frame=32845 fps=199 q=-0.0 size=N/A time=00:22:49.91 bitrate=N/A speed= 8.3x    frame=32953 fps=199 q=-0.0 size=N/A time=00:22:54.41 bitrate=N/A speed= 8.3x    frame=33055 fps=199 q=-0.0 size=N/A time=00:22:58.66 bitrate=N/A speed= 8.3x    frame=33164 fps=199 q=-0.0 size=N/A time=00:23:03.21 bitrate=N/A speed= 8.3x    frame=33269 fps=199 q=-0.0 size=N/A time=00:23:07.59 bitrate=N/A speed= 8.3x    frame=33358 fps=199 q=-0.0 size=N/A time=00:23:11.30 bitrate=N/A speed= 8.3x    frame=33476 fps=199 q=-0.0 size=N/A time=00:23:16.22 bitrate=N/A speed= 8.3x    frame=33562 fps=199 q=-0.0 size=N/A time=00:23:19.81 bitrate=N/A speed= 8.3x    frame=33665 fps=199 q=-0.0 size=N/A time=00:23:24.11 bitrate=N/A speed= 8.3x    frame=33784 fps=199 q=-0.0 size=N/A time=00:23:29.07 bitrate=N/A speed= 8.3x    frame=33884 fps=199 q=-0.0 size=N/A time=00:23:33.24 bitrate=N/A speed= 8.3x    frame=33986 fps=199 q=-0.0 size=N/A time=00:23:37.49 bitrate=N/A speed= 8.3x    [Parsed_psnr_10 @ 000001d82c65e4c0] PSNR y:44.857348 u:49.977187 v:49.820589 average:45.986300 min:38.449463 max:inf
[out#0/null @ 000001d82a3f6b80] video:14640KiB audio:266456KiB subtitle:0KiB other streams:0KiB global headers:0KiB muxing overhead: unknown
frame=34072 fps=199 q=-0.0 Lsize=N/A time=00:23:41.08 bitrate=N/A speed= 8.3x    
